<svg xmlns="http://www.w3.org/2000/svg" width="1200" height="630" viewBox="0 0 1200 630" role="img" aria-label="SPOKEDU Growth Report">
  <defs>
    <linearGradient id="bg" x1="0" y1="0" x2="1" y2="1">
      <stop offset="0" stop-color="#0B1E4B"/>
      <stop offset="0.55" stop-color="#0B2D72"/>
      <stop offset="1" stop-color="#2563EB"/>
    </linearGradient>
    <linearGradient id="shine" x1="0" y1="0" x2="1" y2="0">
      <stop offset="0" stop-color="#FFFFFF" stop-opacity="0.0"/>
      <stop offset="0.55" stop-color="#FFFFFF" stop-opacity="0.10"/>
      <stop offset="1" stop-color="#FFFFFF" stop-opacity="0.0"/>
    </linearGradient>
    <filter id="softShadow" x="-20%" y="-20%" width="140%" height="140%">
      <feDropShadow dx="0" dy="24" stdDeviation="22" flood-color="#000000" flood-opacity="0.22"/>
    </filter>
  </defs>

  <rect width="1200" height="630" fill="url(#bg)"/>
  <path d="M-60 140 C 260 40, 460 80, 740 160 C 980 230, 1150 210, 1280 170 L 1280 0 L -60 0 Z" fill="#FFFFFF" opacity="0.08"/>
  <path d="M-60 560 C 240 500, 420 520, 660 590 C 940 670, 1120 640, 1280 590 L 1280 630 L -60 630 Z" fill="#FFFFFF" opacity="0.06"/>
  <rect x="-40" y="220" width="1280" height="120" fill="url(#shine)" opacity="0.9" transform="skewY(-10)"/>

  <g filter="url(#softShadow)">
    <rect x="92" y="118" width="1016" height="394" rx="46" fill="#0A1632" opacity="0.62"/>
    <rect x="92" y="118" width="1016" height="394" rx="46" fill="none" stroke="#FFFFFF" stroke-opacity="0.14" stroke-width="2"/>

    <g transform="translate(150, 176)">
      <rect x="0" y="0" width="118" height="118" rx="28" fill="#FFFFFF" fill-opacity="0.10" stroke="#FFFFFF" stroke-opacity="0.18"/>
      <path d="M42 30 h34 a18 18 0 0 1 0 36 H56 a18 18 0 0 0 0 36 h34" fill="none" stroke="#FFFFFF" stroke-width="10" stroke-linecap="round"/>

      <text x="150" y="48" fill="#FFFFFF" font-family="Pretendard, system-ui, -apple-system, Segoe UI, Roboto, sans-serif" font-weight="900" font-size="54" letter-spacing="-1">
        SPOKEDU
      </text>
      <text x="150" y="92" fill="#C7D2FE" font-family="Pretendard, system-ui, -apple-system, Segoe UI, Roboto, sans-serif" font-weight="800" font-size="22" letter-spacing="3">
        GROWTH REPORT
      </text>

      <text x="0" y="186" fill="#FFFFFF" font-family="Pretendard, system-ui, -apple-system, Segoe UI, Roboto, sans-serif" font-weight="900" font-size="44" letter-spacing="-1">
        $ś ░¼ Dtö
      </text>
      <text x="0" y="236" fill="#FFFFFF" font-family="Pretendard, system-ui, -apple-system, Segoe UI, Roboto, sans-serif" font-weight="900" font-size="44" letter-spacing="-1">
        \  T <tspan fill="#93C5FD" font-style="italic">ÉÉĄ╚õ</tspan>.
      </text>

      <g transform="translate(0, 284)">
        <rect x="0" y="0" width="420" height="56" rx="999" fill="#FFFFFF" fill-opacity="0.10" stroke="#FFFFFF" stroke-opacity="0.16"/>
        <text x="22" y="37" fill="#E2E8F0" font-family="Pretendard, system-ui, -apple-system, Segoe UI, Roboto, sans-serif" font-weight="700" font-size="20">
          ¼ņĖ ┴l| ņ UxX8ö
        </text>
      </g>
    </g>
  </g>

  <text x="92" y="586" fill="#FFFFFF" opacity="0.55" font-family="Pretendard, system-ui, -apple-system, Segoe UI, Roboto, sans-serif" font-weight="700" font-size="18">
    ® SPOKEDU Education Group
  </text>
</svg>

